<mxfile host="app.diagrams.net" modified="2020-09-28T16:38:01.379Z" agent="5.0 (Windows NT 10.0; Win64; x64) AppleWebKit/537.36 (KHTML, like Gecko) Chrome/85.0.4183.121 Safari/537.36" etag="_S6XKe3-NxJ60ddlnnrf" version="13.7.5" type="github">
  <diagram id="3zB3vqKJ1BA_8LtpK7zn" name="Page-1">
    <mxGraphModel dx="1888" dy="588" grid="1" gridSize="10" guides="1" tooltips="1" connect="1" arrows="1" fold="1" page="1" pageScale="1" pageWidth="850" pageHeight="1100" math="0" shadow="0">
      <root>
        <mxCell id="0" />
        <mxCell id="1" parent="0" />
        <mxCell id="Tkb9A3E0t6XMicSsRPGi-29" value="" style="edgeStyle=elbowEdgeStyle;elbow=vertical;endArrow=classic;html=1;entryX=0.369;entryY=0.01;entryDx=0;entryDy=0;entryPerimeter=0;exitX=0.979;exitY=1.023;exitDx=0;exitDy=0;exitPerimeter=0;" edge="1" parent="1" source="Tkb9A3E0t6XMicSsRPGi-15" target="Tkb9A3E0t6XMicSsRPGi-40">
          <mxGeometry width="50" height="50" relative="1" as="geometry">
            <mxPoint x="730" y="110" as="sourcePoint" />
            <mxPoint x="770" y="240" as="targetPoint" />
            <Array as="points">
              <mxPoint x="750" y="200" />
              <mxPoint x="740" y="160" />
            </Array>
          </mxGeometry>
        </mxCell>
        <mxCell id="Tkb9A3E0t6XMicSsRPGi-15" value="&lt;font style=&quot;font-size: 36px&quot; face=&quot;Times New Roman&quot;&gt;Omni Channels&amp;nbsp;&lt;/font&gt;" style="rounded=0;whiteSpace=wrap;html=1;" vertex="1" parent="1">
          <mxGeometry x="40" y="40" width="700" height="60" as="geometry" />
        </mxCell>
        <mxCell id="Tkb9A3E0t6XMicSsRPGi-21" value="" style="endArrow=classic;html=1;entryX=0.5;entryY=0;entryDx=0;entryDy=0;exitX=0.207;exitY=0.983;exitDx=0;exitDy=0;exitPerimeter=0;" edge="1" parent="1" source="Tkb9A3E0t6XMicSsRPGi-15" target="Tkb9A3E0t6XMicSsRPGi-43">
          <mxGeometry width="50" height="50" relative="1" as="geometry">
            <mxPoint x="320" y="102" as="sourcePoint" />
            <mxPoint x="318" y="280" as="targetPoint" />
          </mxGeometry>
        </mxCell>
        <mxCell id="Tkb9A3E0t6XMicSsRPGi-22" value="" style="endArrow=classic;html=1;exitX=0.434;exitY=1;exitDx=0;exitDy=0;exitPerimeter=0;entryX=0.5;entryY=0;entryDx=0;entryDy=0;" edge="1" parent="1">
          <mxGeometry width="50" height="50" relative="1" as="geometry">
            <mxPoint x="304.4999999999999" y="100" as="sourcePoint" />
            <mxPoint x="305.14" y="300" as="targetPoint" />
          </mxGeometry>
        </mxCell>
        <mxCell id="Tkb9A3E0t6XMicSsRPGi-23" value="" style="endArrow=classic;html=1;entryX=0.591;entryY=-0.003;entryDx=0;entryDy=0;entryPerimeter=0;exitX=0.562;exitY=1.05;exitDx=0;exitDy=0;exitPerimeter=0;" edge="1" parent="1" source="Tkb9A3E0t6XMicSsRPGi-15" target="Tkb9A3E0t6XMicSsRPGi-41">
          <mxGeometry width="50" height="50" relative="1" as="geometry">
            <mxPoint x="561" y="103" as="sourcePoint" />
            <mxPoint x="557" y="300" as="targetPoint" />
          </mxGeometry>
        </mxCell>
        <mxCell id="Tkb9A3E0t6XMicSsRPGi-24" value="" style="edgeStyle=elbowEdgeStyle;elbow=vertical;endArrow=classic;html=1;" edge="1" parent="1">
          <mxGeometry width="50" height="50" relative="1" as="geometry">
            <mxPoint x="104" y="100" as="sourcePoint" />
            <mxPoint x="50" y="235" as="targetPoint" />
            <Array as="points">
              <mxPoint x="85" y="160" />
            </Array>
          </mxGeometry>
        </mxCell>
        <mxCell id="Tkb9A3E0t6XMicSsRPGi-28" value="" style="endArrow=classic;html=1;entryX=0.687;entryY=-0.003;entryDx=0;entryDy=0;entryPerimeter=0;" edge="1" parent="1">
          <mxGeometry width="50" height="50" relative="1" as="geometry">
            <mxPoint x="673" y="102" as="sourcePoint" />
            <mxPoint x="672.8299999999999" y="300.00000000000006" as="targetPoint" />
            <Array as="points">
              <mxPoint x="673" y="210.18" />
            </Array>
          </mxGeometry>
        </mxCell>
        <mxCell id="Tkb9A3E0t6XMicSsRPGi-32" value="&lt;font style=&quot;font-size: 14px&quot;&gt;IB&lt;/font&gt;" style="ellipse;whiteSpace=wrap;html=1;" vertex="1" parent="1">
          <mxGeometry x="10" y="236" width="80" height="40" as="geometry" />
        </mxCell>
        <mxCell id="Tkb9A3E0t6XMicSsRPGi-34" value="" style="edgeStyle=elbowEdgeStyle;elbow=vertical;endArrow=classic;html=1;" edge="1" parent="1">
          <mxGeometry width="50" height="50" relative="1" as="geometry">
            <mxPoint x="-10" y="320" as="sourcePoint" />
            <mxPoint x="40" y="276" as="targetPoint" />
          </mxGeometry>
        </mxCell>
        <mxCell id="Tkb9A3E0t6XMicSsRPGi-35" value="" style="edgeStyle=elbowEdgeStyle;elbow=vertical;endArrow=classic;html=1;" edge="1" parent="1">
          <mxGeometry width="50" height="50" relative="1" as="geometry">
            <mxPoint x="100" y="319" as="sourcePoint" />
            <mxPoint x="60" y="276" as="targetPoint" />
          </mxGeometry>
        </mxCell>
        <mxCell id="Tkb9A3E0t6XMicSsRPGi-36" value="&lt;font style=&quot;font-size: 14px&quot;&gt;CIB&lt;/font&gt;" style="rounded=1;whiteSpace=wrap;html=1;" vertex="1" parent="1">
          <mxGeometry x="-30" y="320" width="60" height="40" as="geometry" />
        </mxCell>
        <mxCell id="Tkb9A3E0t6XMicSsRPGi-37" value="&lt;font style=&quot;font-size: 14px&quot;&gt;PIB&lt;/font&gt;" style="rounded=1;whiteSpace=wrap;html=1;" vertex="1" parent="1">
          <mxGeometry x="50" y="320" width="60" height="40" as="geometry" />
        </mxCell>
        <mxCell id="Tkb9A3E0t6XMicSsRPGi-39" value="&lt;font style=&quot;font-size: 14px&quot;&gt;SB&lt;/font&gt;" style="rounded=1;whiteSpace=wrap;html=1;" vertex="1" parent="1">
          <mxGeometry x="640" y="300" width="90" height="60" as="geometry" />
        </mxCell>
        <mxCell id="Tkb9A3E0t6XMicSsRPGi-40" value="&lt;font style=&quot;font-size: 14px&quot;&gt;EMAIL/&lt;br&gt;SMS&amp;nbsp;&lt;/font&gt;" style="rounded=1;whiteSpace=wrap;html=1;" vertex="1" parent="1">
          <mxGeometry x="780" y="300" width="90" height="60" as="geometry" />
        </mxCell>
        <mxCell id="Tkb9A3E0t6XMicSsRPGi-41" value="&lt;font style=&quot;font-size: 12px&quot;&gt;TRANSVIEWER&lt;/font&gt;" style="rounded=1;whiteSpace=wrap;html=1;" vertex="1" parent="1">
          <mxGeometry x="380" y="300" width="90" height="60" as="geometry" />
        </mxCell>
        <mxCell id="Tkb9A3E0t6XMicSsRPGi-42" value="&lt;font style=&quot;font-size: 14px&quot;&gt;MA&lt;/font&gt;" style="rounded=1;whiteSpace=wrap;html=1;" vertex="1" parent="1">
          <mxGeometry x="260" y="300" width="90" height="60" as="geometry" />
        </mxCell>
        <mxCell id="Tkb9A3E0t6XMicSsRPGi-43" value="&lt;font style=&quot;font-size: 14px&quot;&gt;QS&lt;/font&gt;" style="rounded=1;whiteSpace=wrap;html=1;" vertex="1" parent="1">
          <mxGeometry x="140" y="300" width="90" height="60" as="geometry" />
        </mxCell>
        <mxCell id="Tkb9A3E0t6XMicSsRPGi-47" value="&lt;font style=&quot;font-size: 14px&quot;&gt;POS/AB&lt;/font&gt;" style="rounded=1;whiteSpace=wrap;html=1;" vertex="1" parent="1">
          <mxGeometry x="510" y="300" width="90" height="60" as="geometry" />
        </mxCell>
        <mxCell id="Tkb9A3E0t6XMicSsRPGi-48" value="" style="endArrow=classic;html=1;entryX=0.687;entryY=-0.003;entryDx=0;entryDy=0;entryPerimeter=0;" edge="1" parent="1">
          <mxGeometry width="50" height="50" relative="1" as="geometry">
            <mxPoint x="554.5" y="102.18" as="sourcePoint" />
            <mxPoint x="554.8299999999999" y="300.00000000000006" as="targetPoint" />
            <Array as="points">
              <mxPoint x="555" y="210.18" />
            </Array>
          </mxGeometry>
        </mxCell>
        <mxCell id="Tkb9A3E0t6XMicSsRPGi-49" value="" style="endArrow=classic;html=1;exitX=0.5;exitY=1;exitDx=0;exitDy=0;" edge="1" parent="1" source="Tkb9A3E0t6XMicSsRPGi-39">
          <mxGeometry width="50" height="50" relative="1" as="geometry">
            <mxPoint x="690" y="370" as="sourcePoint" />
            <mxPoint x="685" y="420" as="targetPoint" />
          </mxGeometry>
        </mxCell>
        <mxCell id="Tkb9A3E0t6XMicSsRPGi-51" value="" style="rounded=0;whiteSpace=wrap;html=1;align=left;" vertex="1" parent="1">
          <mxGeometry x="570" y="420" width="230" height="160" as="geometry" />
        </mxCell>
        <mxCell id="Tkb9A3E0t6XMicSsRPGi-53" value="U_name:SMBRUSER2" style="text;html=1;align=center;verticalAlign=middle;resizable=0;points=[];autosize=1;" vertex="1" parent="1">
          <mxGeometry x="564" y="435" width="140" height="20" as="geometry" />
        </mxCell>
        <mxCell id="Tkb9A3E0t6XMicSsRPGi-55" value="Cust_no:088601" style="text;html=1;align=center;verticalAlign=middle;resizable=0;points=[];autosize=1;" vertex="1" parent="1">
          <mxGeometry x="570" y="465" width="100" height="20" as="geometry" />
        </mxCell>
        <mxCell id="Tkb9A3E0t6XMicSsRPGi-56" value="Pass:&lt;span style=&quot;font-weight: normal&quot;&gt;PASS1234&lt;/span&gt;" style="text;html=1;align=center;verticalAlign=middle;resizable=0;points=[];autosize=1;fontStyle=1" vertex="1" parent="1">
          <mxGeometry x="690" y="434" width="110" height="20" as="geometry" />
        </mxCell>
        <mxCell id="Tkb9A3E0t6XMicSsRPGi-58" value="Chq.no" style="text;html=1;align=center;verticalAlign=middle;resizable=0;points=[];autosize=1;" vertex="1" parent="1">
          <mxGeometry x="567" y="522" width="50" height="20" as="geometry" />
        </mxCell>
        <mxCell id="Tkb9A3E0t6XMicSsRPGi-59" value="BBAN:" style="text;html=1;align=center;verticalAlign=middle;resizable=0;points=[];autosize=1;" vertex="1" parent="1">
          <mxGeometry x="567" y="492" width="50" height="20" as="geometry" />
        </mxCell>
        <mxCell id="Tkb9A3E0t6XMicSsRPGi-61" value="URL" style="text;html=1;align=center;verticalAlign=middle;resizable=0;points=[];autosize=1;" vertex="1" parent="1">
          <mxGeometry x="564" y="552" width="40" height="20" as="geometry" />
        </mxCell>
        <mxCell id="Tkb9A3E0t6XMicSsRPGi-63" value="" style="endArrow=classic;html=1;" edge="1" parent="1">
          <mxGeometry width="50" height="50" relative="1" as="geometry">
            <mxPoint x="560" y="360" as="sourcePoint" />
            <mxPoint x="560" y="744.4" as="targetPoint" />
          </mxGeometry>
        </mxCell>
        <mxCell id="Tkb9A3E0t6XMicSsRPGi-64" value="" style="rounded=0;whiteSpace=wrap;html=1;align=left;" vertex="1" parent="1">
          <mxGeometry x="472" y="746" width="248" height="180" as="geometry" />
        </mxCell>
        <mxCell id="Tkb9A3E0t6XMicSsRPGi-65" value="" style="endArrow=classic;html=1;exitX=0.5;exitY=1;exitDx=0;exitDy=0;" edge="1" parent="1">
          <mxGeometry width="50" height="50" relative="1" as="geometry">
            <mxPoint x="425" y="360" as="sourcePoint" />
            <mxPoint x="425" y="420" as="targetPoint" />
          </mxGeometry>
        </mxCell>
        <mxCell id="Tkb9A3E0t6XMicSsRPGi-66" value="" style="rounded=0;whiteSpace=wrap;html=1;align=left;" vertex="1" parent="1">
          <mxGeometry x="330" y="420" width="220" height="180" as="geometry" />
        </mxCell>
        <mxCell id="Tkb9A3E0t6XMicSsRPGi-67" value="" style="endArrow=classic;html=1;" edge="1" parent="1">
          <mxGeometry width="50" height="50" relative="1" as="geometry">
            <mxPoint x="304.5" y="358" as="sourcePoint" />
            <mxPoint x="304.5" y="742.4000000000001" as="targetPoint" />
          </mxGeometry>
        </mxCell>
        <mxCell id="Tkb9A3E0t6XMicSsRPGi-68" value="" style="rounded=0;whiteSpace=wrap;html=1;align=left;" vertex="1" parent="1">
          <mxGeometry x="221" y="743" width="239" height="180" as="geometry" />
        </mxCell>
        <mxCell id="Tkb9A3E0t6XMicSsRPGi-69" value="" style="endArrow=classic;html=1;exitX=0.5;exitY=1;exitDx=0;exitDy=0;" edge="1" parent="1">
          <mxGeometry width="50" height="50" relative="1" as="geometry">
            <mxPoint x="184.5" y="360" as="sourcePoint" />
            <mxPoint x="184.5" y="420" as="targetPoint" />
          </mxGeometry>
        </mxCell>
        <mxCell id="Tkb9A3E0t6XMicSsRPGi-70" value="&lt;span style=&quot;color: rgba(0 , 0 , 0 , 0) ; font-family: monospace ; font-size: 0px&quot;&gt;%3CmxGraphModel%3E%3Croot%3E%3CmxCell%20id%3D%220%22%2F%3E%3CmxCell%20id%3D%221%22%20parent%3D%220%22%2F%3E%3CmxCell%20id%3D%222%22%20value%3D%22Cust_no%3A%22%20style%3D%22text%3Bhtml%3D1%3BstrokeColor%3Dnone%3BfillColor%3Dnone%3Balign%3Dcenter%3BverticalAlign%3Dmiddle%3BwhiteSpace%3Dwrap%3Brounded%3D0%3B%22%20vertex%3D%221%22%20parent%3D%221%22%3E%3CmxGeometry%20x%3D%22336%22%20y%3D%22472%22%20width%3D%2240%22%20height%3D%2220%22%20as%3D%22geometry%22%2F%3E%3C%2FmxCell%3E%3C%2Froot%3E%3C%2FmxGraphModel%3E&lt;/span&gt;&lt;span style=&quot;color: rgba(0 , 0 , 0 , 0) ; font-family: monospace ; font-size: 0px&quot;&gt;%3CmxGraphModel%3E%3Croot%3E%3CmxCell%20id%3D%220%22%2F%3E%3CmxCell%20id%3D%221%22%20parent%3D%220%22%2F%3E%3CmxCell%20id%3D%222%22%20value%3D%22Cust_no%3A%22%20style%3D%22text%3Bhtml%3D1%3BstrokeColor%3Dnone%3BfillColor%3Dnone%3Balign%3Dcenter%3BverticalAlign%3Dmiddle%3BwhiteSpace%3Dwrap%3Brounded%3D0%3B%22%20vertex%3D%221%22%20parent%3D%221%22%3E%3CmxGeometry%20x%3D%22336%22%20y%3D%22472%22%20width%3D%2240%22%20height%3D%2220%22%20as%3D%22geometry%22%2F%3E%3C%2FmxCell%3E%3C%2Froot%3E%3C%2FmxGraphModel%3E&lt;/span&gt;" style="rounded=0;whiteSpace=wrap;html=1;align=left;" vertex="1" parent="1">
          <mxGeometry x="90" y="420" width="200" height="180" as="geometry" />
        </mxCell>
        <mxCell id="Tkb9A3E0t6XMicSsRPGi-71" value="" style="endArrow=classic;html=1;" edge="1" parent="1">
          <mxGeometry width="50" height="50" relative="1" as="geometry">
            <mxPoint x="79.5" y="365.6" as="sourcePoint" />
            <mxPoint x="79.5" y="750.0000000000001" as="targetPoint" />
          </mxGeometry>
        </mxCell>
        <mxCell id="Tkb9A3E0t6XMicSsRPGi-72" value="" style="rounded=0;whiteSpace=wrap;html=1;align=left;" vertex="1" parent="1">
          <mxGeometry x="-7" y="750" width="217" height="180" as="geometry" />
        </mxCell>
        <mxCell id="Tkb9A3E0t6XMicSsRPGi-73" value="" style="endArrow=classic;html=1;exitX=0.5;exitY=1;exitDx=0;exitDy=0;" edge="1" parent="1">
          <mxGeometry width="50" height="50" relative="1" as="geometry">
            <mxPoint y="360" as="sourcePoint" />
            <mxPoint y="420" as="targetPoint" />
          </mxGeometry>
        </mxCell>
        <mxCell id="Tkb9A3E0t6XMicSsRPGi-74" value="" style="rounded=0;whiteSpace=wrap;html=1;align=left;" vertex="1" parent="1">
          <mxGeometry x="-170" y="426" width="240" height="180" as="geometry" />
        </mxCell>
        <mxCell id="Tkb9A3E0t6XMicSsRPGi-75" value="" style="endArrow=classic;html=1;exitX=0.5;exitY=1;exitDx=0;exitDy=0;" edge="1" parent="1">
          <mxGeometry width="50" height="50" relative="1" as="geometry">
            <mxPoint x="840" y="360" as="sourcePoint" />
            <mxPoint x="840" y="420" as="targetPoint" />
          </mxGeometry>
        </mxCell>
        <mxCell id="Tkb9A3E0t6XMicSsRPGi-76" value="" style="rounded=0;whiteSpace=wrap;html=1;align=left;" vertex="1" parent="1">
          <mxGeometry x="830" y="420" width="130" height="60" as="geometry" />
        </mxCell>
        <mxCell id="Tkb9A3E0t6XMicSsRPGi-79" value="U_name:" style="text;html=1;strokeColor=none;fillColor=none;align=center;verticalAlign=middle;whiteSpace=wrap;rounded=0;" vertex="1" parent="1">
          <mxGeometry x="337" y="434" width="40" height="20" as="geometry" />
        </mxCell>
        <mxCell id="Tkb9A3E0t6XMicSsRPGi-80" value="Cust_no:" style="text;html=1;strokeColor=none;fillColor=none;align=center;verticalAlign=middle;whiteSpace=wrap;rounded=0;" vertex="1" parent="1">
          <mxGeometry x="336" y="472" width="40" height="20" as="geometry" />
        </mxCell>
        <mxCell id="Tkb9A3E0t6XMicSsRPGi-81" value="BBAN:" style="text;html=1;strokeColor=none;fillColor=none;align=center;verticalAlign=middle;whiteSpace=wrap;rounded=0;" vertex="1" parent="1">
          <mxGeometry x="331" y="506" width="40" height="20" as="geometry" />
        </mxCell>
        <mxCell id="Tkb9A3E0t6XMicSsRPGi-82" value="Chq.no:" style="text;html=1;strokeColor=none;fillColor=none;align=center;verticalAlign=middle;whiteSpace=wrap;rounded=0;" vertex="1" parent="1">
          <mxGeometry x="333" y="537" width="40" height="20" as="geometry" />
        </mxCell>
        <mxCell id="Tkb9A3E0t6XMicSsRPGi-83" value="Pass:" style="text;html=1;strokeColor=none;fillColor=none;align=center;verticalAlign=middle;whiteSpace=wrap;rounded=0;" vertex="1" parent="1">
          <mxGeometry x="430" y="437" width="40" height="20" as="geometry" />
        </mxCell>
        <mxCell id="Tkb9A3E0t6XMicSsRPGi-84" value="URL:" style="text;html=1;strokeColor=none;fillColor=none;align=center;verticalAlign=middle;whiteSpace=wrap;rounded=0;" vertex="1" parent="1">
          <mxGeometry x="326" y="569" width="40" height="20" as="geometry" />
        </mxCell>
        <mxCell id="Tkb9A3E0t6XMicSsRPGi-86" value="U_name:&amp;nbsp;" style="text;html=1;strokeColor=none;fillColor=none;align=center;verticalAlign=middle;whiteSpace=wrap;rounded=0;" vertex="1" parent="1">
          <mxGeometry x="102" y="436" width="40" height="20" as="geometry" />
        </mxCell>
        <mxCell id="Tkb9A3E0t6XMicSsRPGi-87" value="Cust_no:" style="text;html=1;strokeColor=none;fillColor=none;align=center;verticalAlign=middle;whiteSpace=wrap;rounded=0;" vertex="1" parent="1">
          <mxGeometry x="98" y="472" width="40" height="20" as="geometry" />
        </mxCell>
        <mxCell id="Tkb9A3E0t6XMicSsRPGi-88" value="Pass" style="text;html=1;strokeColor=none;fillColor=none;align=center;verticalAlign=middle;whiteSpace=wrap;rounded=0;" vertex="1" parent="1">
          <mxGeometry x="192" y="434" width="40" height="20" as="geometry" />
        </mxCell>
        <mxCell id="Tkb9A3E0t6XMicSsRPGi-89" value="BBAN" style="text;html=1;strokeColor=none;fillColor=none;align=center;verticalAlign=middle;whiteSpace=wrap;rounded=0;" vertex="1" parent="1">
          <mxGeometry x="92" y="506" width="40" height="20" as="geometry" />
        </mxCell>
        <mxCell id="Tkb9A3E0t6XMicSsRPGi-92" value="Chq.no" style="text;html=1;strokeColor=none;fillColor=none;align=center;verticalAlign=middle;whiteSpace=wrap;rounded=0;" vertex="1" parent="1">
          <mxGeometry x="94" y="537" width="40" height="20" as="geometry" />
        </mxCell>
        <mxCell id="Tkb9A3E0t6XMicSsRPGi-93" value="URL" style="text;html=1;strokeColor=none;fillColor=none;align=center;verticalAlign=middle;whiteSpace=wrap;rounded=0;" vertex="1" parent="1">
          <mxGeometry x="86" y="569" width="40" height="20" as="geometry" />
        </mxCell>
        <mxCell id="Tkb9A3E0t6XMicSsRPGi-95" value="Chq.no" style="text;html=1;strokeColor=none;fillColor=none;align=center;verticalAlign=middle;whiteSpace=wrap;rounded=0;" vertex="1" parent="1">
          <mxGeometry x="-166" y="531" width="40" height="23" as="geometry" />
        </mxCell>
        <mxCell id="Tkb9A3E0t6XMicSsRPGi-96" value="U_name" style="text;html=1;strokeColor=none;fillColor=none;align=center;verticalAlign=middle;whiteSpace=wrap;rounded=0;" vertex="1" parent="1">
          <mxGeometry x="830" y="420" width="44" height="20" as="geometry" />
        </mxCell>
        <mxCell id="Tkb9A3E0t6XMicSsRPGi-97" value="Pass" style="text;html=1;strokeColor=none;fillColor=none;align=center;verticalAlign=middle;whiteSpace=wrap;rounded=0;" vertex="1" parent="1">
          <mxGeometry x="830" y="450" width="40" height="20" as="geometry" />
        </mxCell>
        <mxCell id="Tkb9A3E0t6XMicSsRPGi-98" value="U_name:&amp;nbsp;" style="text;html=1;strokeColor=none;fillColor=none;align=center;verticalAlign=middle;whiteSpace=wrap;rounded=0;" vertex="1" parent="1">
          <mxGeometry x="-160" y="430" width="40" height="20" as="geometry" />
        </mxCell>
        <mxCell id="Tkb9A3E0t6XMicSsRPGi-99" value="Cust_no" style="text;html=1;strokeColor=none;fillColor=none;align=center;verticalAlign=middle;whiteSpace=wrap;rounded=0;" vertex="1" parent="1">
          <mxGeometry x="-164" y="465" width="40" height="20" as="geometry" />
        </mxCell>
        <mxCell id="Tkb9A3E0t6XMicSsRPGi-100" value="Pass" style="text;html=1;strokeColor=none;fillColor=none;align=center;verticalAlign=middle;whiteSpace=wrap;rounded=0;" vertex="1" parent="1">
          <mxGeometry x="-40" y="430" width="40" height="20" as="geometry" />
        </mxCell>
        <mxCell id="Tkb9A3E0t6XMicSsRPGi-101" value="BBAN" style="text;html=1;strokeColor=none;fillColor=none;align=center;verticalAlign=middle;whiteSpace=wrap;rounded=0;" vertex="1" parent="1">
          <mxGeometry x="-170" y="500" width="40" height="20" as="geometry" />
        </mxCell>
        <mxCell id="Tkb9A3E0t6XMicSsRPGi-102" value="URL" style="text;html=1;strokeColor=none;fillColor=none;align=center;verticalAlign=middle;whiteSpace=wrap;rounded=0;" vertex="1" parent="1">
          <mxGeometry x="-174" y="562" width="40" height="20" as="geometry" />
        </mxCell>
        <mxCell id="Tkb9A3E0t6XMicSsRPGi-103" value="U_name:" style="text;html=1;strokeColor=none;fillColor=none;align=center;verticalAlign=middle;whiteSpace=wrap;rounded=0;" vertex="1" parent="1">
          <mxGeometry y="760" width="40" height="20" as="geometry" />
        </mxCell>
        <mxCell id="Tkb9A3E0t6XMicSsRPGi-104" value="Pass" style="text;html=1;strokeColor=none;fillColor=none;align=center;verticalAlign=middle;whiteSpace=wrap;rounded=0;" vertex="1" parent="1">
          <mxGeometry x="105" y="760" width="40" height="20" as="geometry" />
        </mxCell>
        <mxCell id="Tkb9A3E0t6XMicSsRPGi-105" value="Cust_no:" style="text;html=1;strokeColor=none;fillColor=none;align=center;verticalAlign=middle;whiteSpace=wrap;rounded=0;" vertex="1" parent="1">
          <mxGeometry x="-1" y="800" width="40" height="20" as="geometry" />
        </mxCell>
        <mxCell id="Tkb9A3E0t6XMicSsRPGi-106" value="BBAN" style="text;html=1;strokeColor=none;fillColor=none;align=center;verticalAlign=middle;whiteSpace=wrap;rounded=0;" vertex="1" parent="1">
          <mxGeometry x="-8" y="838" width="40" height="20" as="geometry" />
        </mxCell>
        <mxCell id="Tkb9A3E0t6XMicSsRPGi-107" value="Chq.no" style="text;html=1;strokeColor=none;fillColor=none;align=center;verticalAlign=middle;whiteSpace=wrap;rounded=0;" vertex="1" parent="1">
          <mxGeometry x="-4" y="869" width="40" height="20" as="geometry" />
        </mxCell>
        <mxCell id="Tkb9A3E0t6XMicSsRPGi-110" value="URL" style="text;html=1;strokeColor=none;fillColor=none;align=center;verticalAlign=middle;whiteSpace=wrap;rounded=0;" vertex="1" parent="1">
          <mxGeometry x="-11" y="905" width="40" height="20" as="geometry" />
        </mxCell>
        <mxCell id="Tkb9A3E0t6XMicSsRPGi-111" value="U_name:" style="text;html=1;strokeColor=none;fillColor=none;align=center;verticalAlign=middle;whiteSpace=wrap;rounded=0;" vertex="1" parent="1">
          <mxGeometry x="230" y="760" width="40" height="20" as="geometry" />
        </mxCell>
        <mxCell id="Tkb9A3E0t6XMicSsRPGi-112" value="Pass:" style="text;html=1;strokeColor=none;fillColor=none;align=center;verticalAlign=middle;whiteSpace=wrap;rounded=0;" vertex="1" parent="1">
          <mxGeometry x="337" y="760" width="40" height="20" as="geometry" />
        </mxCell>
        <mxCell id="Tkb9A3E0t6XMicSsRPGi-113" value="Cust_no:" style="text;html=1;strokeColor=none;fillColor=none;align=center;verticalAlign=middle;whiteSpace=wrap;rounded=0;" vertex="1" parent="1">
          <mxGeometry x="230" y="800" width="40" height="20" as="geometry" />
        </mxCell>
        <mxCell id="Tkb9A3E0t6XMicSsRPGi-114" value="BBAN" style="text;html=1;strokeColor=none;fillColor=none;align=center;verticalAlign=middle;whiteSpace=wrap;rounded=0;" vertex="1" parent="1">
          <mxGeometry x="222" y="840" width="40" height="20" as="geometry" />
        </mxCell>
        <mxCell id="Tkb9A3E0t6XMicSsRPGi-115" value="Chq.no" style="text;html=1;strokeColor=none;fillColor=none;align=center;verticalAlign=middle;whiteSpace=wrap;rounded=0;" vertex="1" parent="1">
          <mxGeometry x="225" y="873" width="40" height="20" as="geometry" />
        </mxCell>
        <mxCell id="Tkb9A3E0t6XMicSsRPGi-116" value="URL" style="text;html=1;strokeColor=none;fillColor=none;align=center;verticalAlign=middle;whiteSpace=wrap;rounded=0;" vertex="1" parent="1">
          <mxGeometry x="220" y="903" width="40" height="20" as="geometry" />
        </mxCell>
        <mxCell id="Tkb9A3E0t6XMicSsRPGi-117" value="U_name:" style="text;html=1;strokeColor=none;fillColor=none;align=center;verticalAlign=middle;whiteSpace=wrap;rounded=0;" vertex="1" parent="1">
          <mxGeometry x="480" y="760" width="40" height="20" as="geometry" />
        </mxCell>
        <mxCell id="Tkb9A3E0t6XMicSsRPGi-118" value="Pass" style="text;html=1;strokeColor=none;fillColor=none;align=center;verticalAlign=middle;whiteSpace=wrap;rounded=0;" vertex="1" parent="1">
          <mxGeometry x="570" y="760" width="40" height="20" as="geometry" />
        </mxCell>
        <mxCell id="Tkb9A3E0t6XMicSsRPGi-119" value="Cust_no" style="text;html=1;strokeColor=none;fillColor=none;align=center;verticalAlign=middle;whiteSpace=wrap;rounded=0;" vertex="1" parent="1">
          <mxGeometry x="477" y="793" width="40" height="20" as="geometry" />
        </mxCell>
        <mxCell id="Tkb9A3E0t6XMicSsRPGi-120" value="BBAN" style="text;html=1;strokeColor=none;fillColor=none;align=center;verticalAlign=middle;whiteSpace=wrap;rounded=0;" vertex="1" parent="1">
          <mxGeometry x="471" y="823" width="40" height="20" as="geometry" />
        </mxCell>
        <mxCell id="Tkb9A3E0t6XMicSsRPGi-121" value="Chq_no" style="text;html=1;strokeColor=none;fillColor=none;align=center;verticalAlign=middle;whiteSpace=wrap;rounded=0;" vertex="1" parent="1">
          <mxGeometry x="475" y="857" width="40" height="20" as="geometry" />
        </mxCell>
        <mxCell id="Tkb9A3E0t6XMicSsRPGi-122" value="URL" style="text;html=1;strokeColor=none;fillColor=none;align=center;verticalAlign=middle;whiteSpace=wrap;rounded=0;" vertex="1" parent="1">
          <mxGeometry x="468" y="900" width="40" height="20" as="geometry" />
        </mxCell>
      </root>
    </mxGraphModel>
  </diagram>
</mxfile>
